<svg width="24" height="24" viewBox="0 0 24 24" fill="none" xmlns="http://www.w3.org/2000/svg">
<path d="M17.8141 6.2565L12.5641 0.2565C12.4216 0.0945 12.2161 0 12.0001 0C11.7841 0 11.5786 0.0945 11.4361 0.2565L6.18609 6.2565C5.99259 6.4785 5.94459 6.792 6.06759 7.0605C6.18909 7.3275 6.45609 7.5 6.75009 7.5H9.75009V17.25C9.75009 17.664 10.0861 18 10.5001 18H13.5001C13.9141 18 14.2501 17.664 14.2501 17.25V7.5H17.2501C17.5441 7.5 17.8111 7.329 17.9326 7.0605C18.0541 6.792 18.0091 6.477 17.8141 6.2565Z" fill="#F9F9FF"/>
<path d="M20.25 16.5V21H3.75V16.5H0.75V22.5C0.75 23.3295 1.422 24 2.25 24H21.75C22.5795 24 23.25 23.3295 23.25 22.5V16.5H20.25Z" fill="#F9F9FF"/>
</svg>
